PathFileType	4	(X/Y/Z)	13_coords_data.trc
DataRate	CameraRate	NumFrames	NumMarkers	Units	OrigDataRate	OrigDataStartFrame	OrigNumFrames
30.0	30.0	5	21	m	30.0	1	66
Frame#	Time	THUMB_TIP	THUMB_IP	THUMB_MCP	THUMB_CMC	INDEX_TIP	INDEX_DIP	INDEX_PIP	INDEX_MCP	MIDDLE_TIP	MIDDLE_DIP	MIDDLE_PIP	MIDDLE_MCP	RING_TIP	RING_DIP	RING_PIP	RING_MCP	PINKY_TIP	PINKY_DIP	PINKY_PIP	PINKY_MCP	WRIST
X1	Y1	Z1	X2	Y2	Z2	X3	Y3	Z3	X4	Y4	Z4	X5	Y5	Z5	X6	Y6	Z6	X7	Y7	Z7	X8	Y8	Z8	X9	Y9	Z9	X10	Y10	Z10	X11	Y11	Z11	X12	Y12	Z12	X13	Y13	Z13	X14	Y14	Z14	X15	Y15	Z15	X16	Y16	Z16	X17	Y17	Z17	X18	Y18	Z18	X19	Y19	Z19	X20	Y20	Z20	X21	Y21	Z21
0	-2.749317978547796e-18	0.48800491020623327	-0.03576125202178282	-0.1716747368118673	0.4859376992494056	-0.0367354318985863	-0.14881040624157493	0.4708982616386349	-0.03657203327482317	-0.12155956006679547	0.4714735979585531	-0.03336337486712526	-0.07707064572466193	0.5673664041154538	0.030816401819789174	-0.17002579061544193	0.5523021987879743	0.027536185098645305	-0.16052263871126476	0.5324531137306131	0.02083143345786731	-0.14662767700490775	0.5063939974634122	-0.0005820463504799811	-0.12062726477990615	0.592818193043035	0.04913503718958001	-0.13684961800295725	0.5772820200227726	0.04245235448397733	-0.13037126329356474	0.5523357580942656	0.03172996510534076	-0.11978240444063692	0.5181674354407535	0.009207322679037122	-0.10185465426995555	0.6021813973402697	0.03541146690763464	-0.11170827371400871	0.5859974831917503	0.031186433433308403	-0.10498294732979674	0.5637258279046783	0.024610052228393187	-0.0959882511136102	0.5293522930594972	0.0074459930609753755	-0.08339555445465319	0.6060818334265858	0.003647940359999935	-0.061592828760942964	0.5889983804539547	0.0026498243501177354	-0.061193580764438815	0.5680332692340276	0.001539656419882518	-0.061402525021997056	0.5322533906156591	-0.0024070839170340363	-0.06366238735580787	0.46228308100186083	-0.023011742144276925	-0.051989820119430985
1	0.03333333333333339	0.4877693213966009	-0.03538019222471511	-0.17174950401191175	0.4857663034785478	-0.03646893306824073	-0.1488846278347793	0.4708339416129776	-0.03644973625467629	-0.12157447952690648	0.47146469613983966	-0.03335241392800958	-0.0770784264083254	0.5676332110435518	0.03035347285181733	-0.1699772192075913	0.5525128017045167	0.027224658460412776	-0.16051235037996586	0.5326228223896831	0.02062042872106773	-0.1466277291966046	0.5063772504846971	-0.0005740317659937988	-0.12063540544433893	0.5932135051594705	0.04836067157384483	-0.1368422257096995	0.5776154538383116	0.041835590214003515	-0.13035191691658787	0.5525410134683522	0.03138627736637156	-0.11979285203632162	0.5181630800058928	0.00916989071899732	-0.10188369861732705	0.6024324609961709	0.03464990775128052	-0.11176896297408401	0.5861960091816969	0.030632483314163794	-0.10504304791601793	0.5638611746082114	0.0243180452124534	-0.09601736151360452	0.5293562827592377	0.007452290490535307	-0.08338092253140961	0.6060815538221371	0.003624802241314229	-0.0616657896045838	0.5889945911554573	0.0027026751017450446	-0.0612352221116671	0.5680276126026153	0.0016262831504341158	-0.06143323658542188	0.5322543019778417	-0.0024033668719958268	-0.06365035603195646	0.46228308100186083	-0.023011742144276925	-0.051989820119430985
2	0.06666666666666676	0.48772418888564634	-0.034885833302181424	-0.1717772331137164	0.48575971775753873	-0.036119587312898216	-0.14891637783164358	0.4708616478196229	-0.036287763715559196	-0.121588018407365	0.47146483919819965	-0.03334596704473236	-0.07708103027619262	0.5679398450293385	0.029916444219394767	-0.1698571433259844	0.5527590560847733	0.02694366362141898	-0.16043874523836538	0.5328106775843424	0.02045798637452889	-0.1465820494254121	0.5063792295631702	-0.0005490766918453405	-0.12062597208638703	0.5936448801375647	0.047566449153413015	-0.13677005099274553	0.57797013099733	0.04122816542282104	-0.13027941167591195	0.552762168273203	0.03106787500230923	-0.1197562627237263	0.5181726683946517	0.009151578214682377	-0.10188476714365946	0.6027224064450796	0.03377695545544035	-0.11179392176653491	0.5864308216549023	0.030004102393635712	-0.10505969242692204	0.5640205746191557	0.02400052109979267	-0.09600884614356131	0.5293685942521417	0.0074537839685498986	-0.08335315252552389	0.60612367709926	0.0032444512814706616	-0.061831415488503016	0.5890310729697184	0.0024631762370354027	-0.06134923981956342	0.5680574033833107	0.001518075352799464	-0.06150411847792514	0.5322706554909009	-0.0024440328082449003	-0.06362398290880156	0.4622830810018609	-0.023011742144276925	-0.051989820119430985
3	0.10000000000000014	0.48784340430295425	-0.0343095956070939	-0.17176234378986793	0.48589353910045624	-0.03571010196548596	-0.1489098470415433	0.4709669774920793	-0.036097180541887264	-0.12159926431749613	0.4714727185807342	-0.033343882637508204	-0.07707900402399626	0.5682772537260774	0.029501147020305818	-0.16967789387103732	0.553033240082667	0.02668790049969272	-0.16031276215526447	0.5330121777158883	0.020336238465122336	-0.14649888203039907	0.5063965633536734	-0.0005113170375231624	-0.12060246151160958	0.5941008158453336	0.046758899238679597	-0.1366447060115985	0.5783384915917587	0.04063159882292622	-0.13016355459072682	0.5529944184764186	0.030772156687668084	-0.11968124049956352	0.5181937119196707	0.009148865419092767	-0.10186293477580066	0.6030386343584284	0.03281328132883077	-0.11178795209748982	0.5866916279790121	0.029315513980737173	-0.10503954443271946	0.5641981504937083	0.02366264253181949	-0.09596934630918641	0.5293875798901573	0.007450911153729534	-0.08331530450508906	0.6061964015353236	0.002564391130569943	-0.062074310781271125	0.5890980580464606	0.0019782905272790474	-0.06152373288516699	0.5681154816681218	0.0012459575340201257	-0.061608561619457824	0.5322995459382613	-0.002521162106815966	-0.06358618858280041	0.46228308100186094	-0.023011742144276925	-0.051989820119430985
4	0.13333333333333353	0.4881008635074238	-0.0336828487357258	-0.17170885277611508	0.48614333650547964	-0.03526315910785505	-0.14886874097331515	0.47113556480853686	-0.035889041532047306	-0.1216071368406979	0.4714870202565383	-0.033346005237209986	-0.07707288658910827	0.5686363267770516	0.029103491274376614	-0.1694517272637049	0.5533275284567318	0.02645212303382183	-0.1601452273609082	0.5332226839731349	0.020247357568148883	-0.1463863775977059	0.5064258765051017	-0.00046488799422805815	-0.1205683589424148	0.5945701241096064	0.045944804971749575	-0.13647790716282848	0.578713151331883	0.040047566565088455	-0.13001423997604222	0.5532329797911834	0.030496558054499356	-0.1195763932303201	0.518223703705572	0.009158225275866627	-0.1018232508834066	0.6033691442925361	0.03177996463969013	-0.11175605394737331	0.5869685366123308	0.028581252133978885	-0.104989348247714	0.5643881361759964	0.023309715264407727	-0.09590549476102994	0.5294115829271837	0.007444114869973428	-0.08327045297411417	0.6062862419633163	0.001642018435605852	-0.06237906247241065	0.5891842032860373	0.00129488349736806	-0.061746788468908353	0.5681935927638238	0.0008407445556612991	-0.061739952799994335	0.5323380627466455	-0.0026269225791486495	-0.06353987025071095	0.46228308100186094	-0.023011742144276925	-0.051989820119430985
